<svg xmlns="http://www.w3.org/2000/svg" width="1160" height="840" viewBox="0 0 1160 840" role="img" aria-labelledby="title desc">
  <title id="title">Sallah customer experience v1 design reference</title>
  <desc id="desc">Original Arabic-first reference showing home, AI chat and location picker screens. This is not a physical-device screenshot.</desc>
  <defs>
    <filter id="shadow" x="-20%" y="-20%" width="140%" height="150%">
      <feDropShadow dx="0" dy="8" stdDeviation="12" flood-color="#102A2A" flood-opacity=".12"/>
    </filter>
    <style>
      .frame{fill:#F7F8F5;stroke:#C8D5D1;stroke-width:2}
      .card{fill:#FFFFFF;stroke:#D9E3DF;stroke-width:1}
      .soft{fill:#DFF2EE}.accent{fill:#FFF2D8}.primary{fill:#2E8C7A}
      .ink{fill:#102A2A}.muted{fill:#5D706D}.white{fill:#FFFFFF}
      .title{font:900 25px Arial;direction:rtl;unicode-bidi:bidi-override}
      .h2{font:800 17px Arial;direction:rtl;unicode-bidi:bidi-override}
      .body{font:500 13px Arial;direction:rtl;unicode-bidi:bidi-override}
      .caption{font:600 11px Arial;direction:rtl;unicode-bidi:bidi-override}
      .latin{font:600 12px Arial}
    </style>
  </defs>
  <rect width="1160" height="840" fill="#EDF3F0"/>
  <text x="580" y="30" text-anchor="middle" class="latin ink">SALLAH CUSTOMER EXPERIENCE V1 · ORIGINAL DESIGN REFERENCE · NOT A DEVICE CAPTURE</text>

  <g transform="translate(22 48)" filter="url(#shadow)">
    <rect class="frame" rx="34" width="360" height="760"/>
    <rect class="card" x="18" y="22" rx="16" width="324" height="62"/>
    <circle class="soft" cx="310" cy="53" r="20"/><path d="M310 42c-7 0-12 5-12 12 0 9 12 18 12 18s12-9 12-18c0-7-5-12-12-12zm0 8a4 4 0 1 1 0 8 4 4 0 0 1 0-8z" class="primary"/>
    <text x="282" y="48" text-anchor="end" class="caption muted">الموقع الحالي</text>
    <text x="282" y="68" text-anchor="end" class="h2 ink">المنزل · حي العليا</text>
    <circle class="card" cx="50" cy="53" r="20"/><circle cx="50" cy="50" r="6" fill="none" stroke="#102A2A" stroke-width="2"/><path d="M43 59h14" stroke="#102A2A" stroke-width="2"/>

    <rect class="soft" x="18" y="102" rx="25" width="324" height="146"/>
    <circle class="accent" cx="300" cy="138" r="23"/><path d="M292 138l6 6 11-14" fill="none" stroke="#9A5B05" stroke-width="3"/>
    <text x="318" y="180" text-anchor="end" class="title ink">وش الخدمة اللي تحتاجها اليوم؟</text>
    <text x="318" y="207" text-anchor="end" class="body muted">اختر الخدمة أو اشرح احتياجك بخطوات بسيطة</text>
    <rect class="primary" x="190" y="218" rx="14" width="128" height="42"/><text x="254" y="244" text-anchor="middle" class="h2 white">طلب جديد +</text>

    <rect class="card" x="18" y="276" rx="16" width="324" height="52"/>
    <text x="318" y="308" text-anchor="end" class="body muted">ابحث عن خدمة</text>
    <circle cx="46" cy="302" r="8" fill="none" stroke="#5D706D" stroke-width="2"/><path d="M52 308l7 7" stroke="#5D706D" stroke-width="2"/>

    <text x="330" y="362" text-anchor="end" class="h2 ink">الخدمات</text>
    <g transform="translate(18 378)">
      <rect class="card" rx="20" width="100" height="122"/><circle class="soft" cx="74" cy="34" r="21"/><path d="M66 34h16M74 26v16" stroke="#2E8C7A" stroke-width="3"/><text x="84" y="80" text-anchor="end" class="h2 ink">سباكة</text><text x="84" y="100" text-anchor="end" class="caption muted">مياه وصنابير</text>
      <g transform="translate(112)"><rect class="card" rx="20" width="100" height="122"/><circle class="soft" cx="74" cy="34" r="21"/><path d="M70 20l-8 17h10l-4 15 14-21H72z" class="primary"/><text x="84" y="80" text-anchor="end" class="h2 ink">كهرباء</text><text x="84" y="100" text-anchor="end" class="caption muted">قواطع وإنارة</text></g>
      <g transform="translate(224)"><rect class="card" rx="20" width="100" height="122"/><circle class="soft" cx="74" cy="34" r="21"/><path d="M60 34h28M74 20v28" stroke="#2E8C7A" stroke-width="3"/><text x="84" y="80" text-anchor="end" class="h2 ink">تكييف</text><text x="84" y="100" text-anchor="end" class="caption muted">تبريد وتنظيف</text></g>
    </g>
    <rect class="card" x="18" y="520" rx="20" width="324" height="94"/>
    <text x="318" y="551" text-anchor="end" class="h2 ink">طلبك النشط</text><rect class="soft" x="38" y="537" rx="12" width="82" height="26"/><text x="79" y="555" text-anchor="middle" class="caption ink">جاري المطابقة</text><text x="318" y="582" text-anchor="end" class="body muted">إصلاح تسريب أسفل المغسلة</text>

    <rect class="card" x="0" y="684" width="360" height="76"/>
    <g class="caption muted" text-anchor="middle"><text x="45" y="734">الحساب</text><text x="135" y="734">الرسائل</text><text x="225" y="734">طلباتي</text><text x="315" y="734" fill="#2E8C7A">الرئيسية</text></g>
    <g fill="#5D706D"><circle cx="45" cy="706" r="9"/><rect x="126" y="698" width="18" height="15" rx="5"/><rect x="216" y="697" width="18" height="19" rx="3"/><path d="M303 707l12-10 12 10v14h-24z" fill="#2E8C7A"/></g>
  </g>

  <g transform="translate(400 48)" filter="url(#shadow)">
    <rect class="frame" rx="34" width="360" height="760"/>
    <text x="320" y="48" text-anchor="end" class="caption primary">الخطوة ٢ من ٥</text>
    <text x="320" y="82" text-anchor="end" class="title ink">اشرح المشكلة بطريقتك</text>
    <rect x="30" y="103" width="300" height="6" rx="3" fill="#D9E3DF"/><rect x="210" y="103" width="120" height="6" rx="3" class="primary"/>
    <rect class="soft" x="48" y="142" rx="20" width="274" height="78"/>
    <circle class="accent" cx="300" cy="170" r="16"/><text x="276" y="164" text-anchor="end" class="caption primary">مساعد صلّح</text><text x="276" y="190" text-anchor="end" class="body ink">وش الأعراض اللي لاحظتها؟ ومتى بدأت؟</text>
    <rect class="primary" x="122" y="240" rx="20" width="202" height="64"/><text x="300" y="266" text-anchor="end" class="caption white">أنت</text><text x="300" y="287" text-anchor="end" class="body white">ضغط الماء منخفض من اليوم</text>
    <rect class="soft" x="48" y="324" rx="20" width="274" height="86"/><text x="296" y="349" text-anchor="end" class="caption primary">مساعد صلّح</text><text x="296" y="375" text-anchor="end" class="body ink">هل الانخفاض في كل الصنابير أو واحد فقط؟</text>
    <g transform="translate(72 430)"><rect class="card" rx="16" width="88" height="34"/><text x="44" y="452" text-anchor="middle" class="caption ink">لست متأكدًا</text><rect class="card" x="98" rx="16" width="88" height="34"/><text x="142" y="452" text-anchor="middle" class="caption ink">منذ فترة</text><rect class="card" x="196" rx="16" width="88" height="34"/><text x="240" y="452" text-anchor="middle" class="caption ink">بدأت اليوم</text></g>
    <rect class="card" x="18" y="500" rx="22" width="324" height="168"/>
    <text x="318" y="534" text-anchor="end" class="body muted">اكتب إجابتك هنا...</text>
    <line x1="34" y1="556" x2="326" y2="556" stroke="#D9E3DF"/>
    <g transform="translate(40 574)"><circle class="soft" cx="20" cy="20" r="20"/><path d="M14 18h12v10H14z" fill="none" stroke="#2E8C7A" stroke-width="2"/><circle class="soft" cx="82" cy="20" r="20"/><path d="M75 14h14v12H75z" fill="none" stroke="#2E8C7A" stroke-width="2"/><circle class="soft" cx="144" cy="20" r="20"/><path d="M144 10v20M137 20a7 7 0 0 0 14 0" stroke="#2E8C7A" stroke-width="2" fill="none"/><circle class="primary" cx="260" cy="20" r="22"/><path d="M250 20h17M261 13l7 7-7 7" stroke="#fff" stroke-width="2" fill="none"/></g>
    <text x="180" y="716" text-anchor="middle" class="caption muted">المسودة محفوظة ويمكن استكمالها لاحقًا</text>
  </g>

  <g transform="translate(778 48)" filter="url(#shadow)">
    <rect class="frame" rx="34" width="360" height="760"/>
    <text x="320" y="48" text-anchor="end" class="title ink">حدد موقع الخدمة</text>
    <text x="320" y="74" text-anchor="end" class="body muted">حرّك الخريطة ثم أكّد العنوان</text>
    <rect class="accent" x="18" y="98" rx="18" width="324" height="86"/>
    <text x="318" y="126" text-anchor="end" class="h2 ink">استخدام موقعك الحالي</text><text x="318" y="150" text-anchor="end" class="caption muted">الموقع في المقدمة فقط — بدون تتبع بالخلفية</text><rect class="card" x="40" y="120" rx="12" width="88" height="38"/><text x="84" y="144" text-anchor="middle" class="caption primary">استخدام</text>
    <rect x="18" y="204" rx="24" width="324" height="316" fill="#DDE9E4"/>
    <path d="M18 292h324M18 405h324M112 204v316M246 204v316" stroke="#C0D2CC" stroke-width="8"/>
    <path d="M18 245c75 35 130 28 188 0s91-17 136 12M40 500c40-70 90-90 150-67s98 5 152-48" fill="none" stroke="#B2CBC3" stroke-width="12"/>
    <circle cx="180" cy="350" r="26" class="primary"/><path d="M180 335c-8 0-14 6-14 14 0 11 14 22 14 22s14-11 14-22c0-8-6-14-14-14zm0 9a5 5 0 1 1 0 10 5 5 0 0 1 0-10z" class="white"/>
    <rect class="card" x="30" y="480" rx="18" width="300" height="82"/>
    <text x="306" y="510" text-anchor="end" class="caption muted">العنوان المحدد</text><text x="306" y="536" text-anchor="end" class="h2 ink">شارع الملك فهد، حي العليا، الرياض</text>
    <rect class="card" x="18" y="584" rx="16" width="324" height="50"/><text x="318" y="615" text-anchor="end" class="body ink">المنزل</text>
    <rect class="primary" x="18" y="654" rx="16" width="324" height="50"/><text x="180" y="685" text-anchor="middle" class="h2 white">استخدام هذا الموقع</text>
    <text x="180" y="736" text-anchor="middle" class="caption muted">الإحداثيات الدقيقة خاصة ولا تظهر لمقدم غير مطابق</text>
  </g>
</svg>
